# xmcd
#
# Track frame offsets:
#	182
#	18070
#	29652
#	42900
#	57005
#	73590
#	88900
#
# Disc length: 1398 seconds
#
# Revision: 0
# Processed by: cddbd v1.5.1PL2 Copyright (c) Steve Scherf et al.
# Submitted via: VUPlayer 2.43
#
DISCID=55057407
DTITLE=Various Artist - The Many Sides of Blue Horizon
DYEAR=1994
DGENRE=Blues
TTITLE0=Fleetwood Mac - Fleetwood Mac
TTITLE1=Bukka White - Give Me An Old, Old Lady
TTITLE2=Johnny Shines - Baby Don't You Think I Know
TTITLE3=Otis Spann - She Needs Some Loving
TTITLE4=Top Topham - Hop House
TTITLE5=Champion Jack Dupree - Blues Before Sunrise
TTITLE6=Chicken Shack - Horse And Cart
EXTD=
EXTT0=
EXTT1=
EXTT2=
EXTT3=
EXTT4=
EXTT5=
EXTT6=
PLAYORDER=
